<svg xmlns="http://www.w3.org/2000/svg" xmlns:xlink="http://www.w3.org/1999/xlink" width="600" height="480" viewBox="0 0 600 480"><title>Gnuplot</title><desc>Produced by GNUPLOT 6.0 patchlevel 2</desc><g id="gnuplot_canvas"><rect width="600" height="480" x="0" y="0" fill="none"/><defs><circle id="gpDot" r=".5" stroke="currentColor" stroke-width=".5"/><path id="gpPt0" stroke="currentColor" stroke-width=".222" d="M-1,0 h2 M0,-1 v2"/><path id="gpPt1" stroke="currentColor" stroke-width=".222" d="M-1,-1 L1,1 M1,-1 L-1,1"/><path id="gpPt2" stroke="currentColor" stroke-width=".222" d="M-1,0 L1,0 M0,-1 L0,1 M-1,-1 L1,1 M-1,1 L1,-1"/><rect id="gpPt3" width="2" height="2" x="-1" y="-1" stroke="currentColor" stroke-width=".222"/><rect id="gpPt4" width="2" height="2" x="-1" y="-1" fill="currentColor" stroke="currentColor" stroke-width=".222"/><circle id="gpPt5" cx="0" cy="0" r="1" stroke="currentColor" stroke-width=".222"/><use id="gpPt6" fill="currentColor" stroke="none" xlink:href="#gpPt5"/><path id="gpPt7" stroke="currentColor" stroke-width=".222" d="M0,-1.33 L-1.33,0.67 L1.33,0.67 z"/><use id="gpPt8" fill="currentColor" stroke="none" xlink:href="#gpPt7"/><use id="gpPt9" stroke="currentColor" transform="rotate(180)" xlink:href="#gpPt7"/><use id="gpPt10" fill="currentColor" stroke="none" xlink:href="#gpPt9"/><use id="gpPt11" stroke="currentColor" transform="rotate(45)" xlink:href="#gpPt3"/><use id="gpPt12" fill="currentColor" stroke="none" xlink:href="#gpPt11"/><path id="gpPt13" stroke="currentColor" stroke-width=".222" d="M0,1.330 L1.265,0.411 L0.782,-1.067 L-0.782,-1.076 L-1.265,0.411 z"/><use id="gpPt14" fill="currentColor" stroke="none" xlink:href="#gpPt13"/><filter id="textbox" width="1" height="1" x="0" y="0" filterUnits="objectBoundingBox"><feFlood flood-color="#fff" flood-opacity="1" result="bgnd"/><feComposite in="SourceGraphic" in2="bgnd" operator="atop"/></filter><filter id="greybox" width="1" height="1" x="0" y="0" filterUnits="objectBoundingBox"><feFlood flood-color="#d3d3d3" flood-opacity="1" result="grey"/><feComposite in="SourceGraphic" in2="grey" operator="atop"/></filter></defs><g fill="none" stroke="currentColor" stroke-linecap="butt" stroke-linejoin="miter" stroke-width="1" color="#000"><path stroke="#000" d="M89.31,422.40 L98.31,422.40"/><g fill="#000" stroke="none" font-family="Arial" font-size="12" text-anchor="end"><text transform="translate(80.92,426.30)"><tspan font-family="Arial">0</tspan></text></g></g><g fill="none" stroke="currentColor" stroke-linecap="butt" stroke-linejoin="miter" stroke-width="1" color="#000"><path stroke="#000" d="M89.31,361.00 L98.31,361.00"/><g fill="#000" stroke="none" font-family="Arial" font-size="12" text-anchor="end"><text transform="translate(80.92,364.90)"><tspan font-family="Arial">5000</tspan></text></g></g><g fill="none" stroke="currentColor" stroke-linecap="butt" stroke-linejoin="miter" stroke-width="1" color="#000"><path stroke="#000" d="M89.31,299.60 L98.31,299.60"/><g fill="#000" stroke="none" font-family="Arial" font-size="12" text-anchor="end"><text transform="translate(80.92,303.50)"><tspan font-family="Arial">10000</tspan></text></g></g><g fill="none" stroke="currentColor" stroke-linecap="butt" stroke-linejoin="miter" stroke-width="1" color="#000"><path stroke="#000" d="M89.31,238.20 L98.31,238.20"/><g fill="#000" stroke="none" font-family="Arial" font-size="12" text-anchor="end"><text transform="translate(80.92,242.10)"><tspan font-family="Arial">15000</tspan></text></g></g><g fill="none" stroke="currentColor" stroke-linecap="butt" stroke-linejoin="miter" stroke-width="1" color="#000"><path stroke="#000" d="M89.31,176.81 L98.31,176.81"/><g fill="#000" stroke="none" font-family="Arial" font-size="12" text-anchor="end"><text transform="translate(80.92,180.71)"><tspan font-family="Arial">20000</tspan></text></g></g><g fill="none" stroke="currentColor" stroke-linecap="butt" stroke-linejoin="miter" stroke-width="1" color="#000"><path stroke="#000" d="M89.31,115.41 L98.31,115.41"/><g fill="#000" stroke="none" font-family="Arial" font-size="12" text-anchor="end"><text transform="translate(80.92,119.31)"><tspan font-family="Arial">25000</tspan></text></g></g><g fill="none" stroke="currentColor" stroke-linecap="butt" stroke-linejoin="miter" stroke-width="1" color="#000"><path stroke="#000" d="M89.31,54.01 L98.31,54.01"/><g fill="#000" stroke="none" font-family="Arial" font-size="12" text-anchor="end"><text transform="translate(80.92,57.91)"><tspan font-family="Arial">30000</tspan></text></g></g><g fill="none" stroke="currentColor" stroke-linecap="butt" stroke-linejoin="miter" stroke-width="1" color="#000"><path stroke="#000" d="M89.31,422.40 L89.31,413.40 M89.31,54.01 L89.31,63.01"/><g fill="#000" stroke="none" font-family="Arial" font-size="12" text-anchor="middle"><text transform="translate(89.31,444.30)"><tspan font-family="Arial">0</tspan></text></g></g><g fill="none" stroke="currentColor" stroke-linecap="butt" stroke-linejoin="miter" stroke-width="1" color="#000"><path stroke="#000" d="M129.35,422.40 L129.35,413.40 M129.35,54.01 L129.35,63.01"/><g fill="#000" stroke="none" font-family="Arial" font-size="12" text-anchor="middle"><text transform="translate(129.35,444.30)"><tspan font-family="Arial">10</tspan></text></g></g><g fill="none" stroke="currentColor" stroke-linecap="butt" stroke-linejoin="miter" stroke-width="1" color="#000"><path stroke="#000" d="M169.39,422.40 L169.39,413.40 M169.39,54.01 L169.39,63.01"/><g fill="#000" stroke="none" font-family="Arial" font-size="12" text-anchor="middle"><text transform="translate(169.39,444.30)"><tspan font-family="Arial">20</tspan></text></g></g><g fill="none" stroke="currentColor" stroke-linecap="butt" stroke-linejoin="miter" stroke-width="1" color="#000"><path stroke="#000" d="M209.43,422.40 L209.43,413.40 M209.43,54.01 L209.43,63.01"/><g fill="#000" stroke="none" font-family="Arial" font-size="12" text-anchor="middle"><text transform="translate(209.43,444.30)"><tspan font-family="Arial">30</tspan></text></g></g><g fill="none" stroke="currentColor" stroke-linecap="butt" stroke-linejoin="miter" stroke-width="1" color="#000"><path stroke="#000" d="M249.47,422.40 L249.47,413.40 M249.47,54.01 L249.47,63.01"/><g fill="#000" stroke="none" font-family="Arial" font-size="12" text-anchor="middle"><text transform="translate(249.47,444.30)"><tspan font-family="Arial">40</tspan></text></g></g><g fill="none" stroke="currentColor" stroke-linecap="butt" stroke-linejoin="miter" stroke-width="1" color="#000"><path stroke="#000" d="M289.51,422.40 L289.51,413.40 M289.51,54.01 L289.51,63.01"/><g fill="#000" stroke="none" font-family="Arial" font-size="12" text-anchor="middle"><text transform="translate(289.51,444.30)"><tspan font-family="Arial">50</tspan></text></g></g><g fill="none" stroke="currentColor" stroke-linecap="butt" stroke-linejoin="miter" stroke-width="1" color="#000"><path stroke="#000" d="M329.54,422.40 L329.54,413.40 M329.54,54.01 L329.54,63.01"/><g fill="#000" stroke="none" font-family="Arial" font-size="12" text-anchor="middle"><text transform="translate(329.54,444.30)"><tspan font-family="Arial">60</tspan></text></g></g><g fill="none" stroke="currentColor" stroke-linecap="butt" stroke-linejoin="miter" stroke-width="1" color="#000"><path stroke="#000" d="M369.58,422.40 L369.58,413.40 M369.58,54.01 L369.58,63.01"/><g fill="#000" stroke="none" font-family="Arial" font-size="12" text-anchor="middle"><text transform="translate(369.58,444.30)"><tspan font-family="Arial">70</tspan></text></g></g><g fill="none" stroke="currentColor" stroke-linecap="butt" stroke-linejoin="miter" stroke-width="1" color="#000"><path stroke="#000" d="M409.62,422.40 L409.62,413.40 M409.62,54.01 L409.62,63.01"/><g fill="#000" stroke="none" font-family="Arial" font-size="12" text-anchor="middle"><text transform="translate(409.62,444.30)"><tspan font-family="Arial">80</tspan></text></g></g><g fill="none" stroke="currentColor" stroke-linecap="butt" stroke-linejoin="miter" stroke-width="1" color="#000"><path stroke="#000" d="M449.66,422.40 L449.66,413.40 M449.66,54.01 L449.66,63.01"/><g fill="#000" stroke="none" font-family="Arial" font-size="12" text-anchor="middle"><text transform="translate(449.66,444.30)"><tspan font-family="Arial">90</tspan></text></g></g><g fill="none" stroke="currentColor" stroke-linecap="butt" stroke-linejoin="miter" stroke-width="1" color="#000"><path stroke="#000" d="M489.70,422.40 L489.70,413.40 M489.70,54.01 L489.70,63.01"/><g fill="#000" stroke="none" font-family="Arial" font-size="12" text-anchor="middle"><text transform="translate(489.70,444.30)"><tspan font-family="Arial">100</tspan></text></g></g><g fill="none" stroke="currentColor" stroke-linecap="butt" stroke-linejoin="miter" stroke-width="1" color="#000"><path stroke="#000" d="M489.70,422.40 L480.70,422.40"/><g fill="#000" stroke="none" font-family="Arial" font-size="12" text-anchor="start"><text transform="translate(498.09,426.30)"><tspan font-family="Arial">0</tspan></text></g></g><g fill="none" stroke="currentColor" stroke-linecap="butt" stroke-linejoin="miter" stroke-width="1" color="#000"><path stroke="#000" d="M489.70,369.77 L480.70,369.77"/><g fill="#000" stroke="none" font-family="Arial" font-size="12" text-anchor="start"><text transform="translate(498.09,373.67)"><tspan font-family="Arial">10000</tspan></text></g></g><g fill="none" stroke="currentColor" stroke-linecap="butt" stroke-linejoin="miter" stroke-width="1" color="#000"><path stroke="#000" d="M489.70,317.15 L480.70,317.15"/><g fill="#000" stroke="none" font-family="Arial" font-size="12" text-anchor="start"><text transform="translate(498.09,321.05)"><tspan font-family="Arial">20000</tspan></text></g></g><g fill="none" stroke="currentColor" stroke-linecap="butt" stroke-linejoin="miter" stroke-width="1" color="#000"><path stroke="#000" d="M489.70,264.52 L480.70,264.52"/><g fill="#000" stroke="none" font-family="Arial" font-size="12" text-anchor="start"><text transform="translate(498.09,268.42)"><tspan font-family="Arial">30000</tspan></text></g></g><g fill="none" stroke="currentColor" stroke-linecap="butt" stroke-linejoin="miter" stroke-width="1" color="#000"><path stroke="#000" d="M489.70,211.89 L480.70,211.89"/><g fill="#000" stroke="none" font-family="Arial" font-size="12" text-anchor="start"><text transform="translate(498.09,215.79)"><tspan font-family="Arial">40000</tspan></text></g></g><g fill="none" stroke="currentColor" stroke-linecap="butt" stroke-linejoin="miter" stroke-width="1" color="#000"><path stroke="#000" d="M489.70,159.26 L480.70,159.26"/><g fill="#000" stroke="none" font-family="Arial" font-size="12" text-anchor="start"><text transform="translate(498.09,163.16)"><tspan font-family="Arial">50000</tspan></text></g></g><g fill="none" stroke="currentColor" stroke-linecap="butt" stroke-linejoin="miter" stroke-width="1" color="#000"><path stroke="#000" d="M489.70,106.64 L480.70,106.64"/><g fill="#000" stroke="none" font-family="Arial" font-size="12" text-anchor="start"><text transform="translate(498.09,110.54)"><tspan font-family="Arial">60000</tspan></text></g></g><g fill="none" stroke="currentColor" stroke-linecap="butt" stroke-linejoin="miter" stroke-width="1" color="#000"><path stroke="#000" d="M489.70,54.01 L480.70,54.01"/><g fill="#000" stroke="none" font-family="Arial" font-size="12" text-anchor="start"><text transform="translate(498.09,57.91)"><tspan font-family="Arial">70000</tspan></text></g></g><g fill="none" stroke="currentColor" stroke-linecap="butt" stroke-linejoin="miter" stroke-width="1" color="#000"><path stroke="#000" d="M89.31,54.01 L89.31,422.40 L489.70,422.40 L489.70,54.01 L89.31,54.01 Z"/></g><g id="gnuplot_plot_1"><title>base.log (measured)</title><g fill="none" stroke="currentColor" stroke-linecap="butt" stroke-linejoin="miter" stroke-width="1" color="#000"><g fill="#000" stroke="none" font-family="Arial" font-size="12" text-anchor="end"><text transform="translate(424.91,75.91)"><tspan font-family="Arial">base.log (measured)</tspan></text></g></g><g fill="none" stroke="currentColor" stroke-linecap="butt" stroke-linejoin="miter" stroke-width="1" color="#000"><use x="93.31" y="380.44" color="#9400D3" xlink:href="#gpDot"/><use x="97.32" y="411.14" color="#9400D3" xlink:href="#gpDot"/><use x="101.32" y="409.6" color="#9400D3" xlink:href="#gpDot"/><use x="105.33" y="406.03" color="#9400D3" xlink:href="#gpDot"/><use x="109.33" y="402.45" color="#9400D3" xlink:href="#gpDot"/><use x="113.33" y="397.84" color="#9400D3" xlink:href="#gpDot"/><use x="117.34" y="396.82" color="#9400D3" xlink:href="#gpDot"/><use x="121.34" y="394.26" color="#9400D3" xlink:href="#gpDot"/><use x="125.35" y="389.15" color="#9400D3" xlink:href="#gpDot"/><use x="129.35" y="387.1" color="#9400D3" xlink:href="#gpDot"/><use x="133.35" y="383.52" color="#9400D3" xlink:href="#gpDot"/><use x="137.36" y="380.96" color="#9400D3" xlink:href="#gpDot"/><use x="141.36" y="378.4" color="#9400D3" xlink:href="#gpDot"/><use x="145.36" y="375.33" color="#9400D3" xlink:href="#gpDot"/><use x="149.37" y="371.75" color="#9400D3" xlink:href="#gpDot"/><use x="153.37" y="367.66" color="#9400D3" xlink:href="#gpDot"/><use x="157.38" y="363.05" color="#9400D3" xlink:href="#gpDot"/><use x="161.38" y="359.98" color="#9400D3" xlink:href="#gpDot"/><use x="165.38" y="357.93" color="#9400D3" xlink:href="#gpDot"/><use x="169.39" y="354.86" color="#9400D3" xlink:href="#gpDot"/><use x="173.39" y="352.82" color="#9400D3" xlink:href="#gpDot"/><use x="177.4" y="349.75" color="#9400D3" xlink:href="#gpDot"/><use x="181.4" y="345.65" color="#9400D3" xlink:href="#gpDot"/><use x="185.4" y="343.61" color="#9400D3" xlink:href="#gpDot"/><use x="189.41" y="340.53" color="#9400D3" xlink:href="#gpDot"/><use x="193.41" y="338.48" color="#9400D3" xlink:href="#gpDot"/><use x="197.42" y="334.4" color="#9400D3" xlink:href="#gpDot"/><use x="201.42" y="329.79" color="#9400D3" xlink:href="#gpDot"/><use x="205.42" y="327.23" color="#9400D3" xlink:href="#gpDot"/><use x="209.43" y="326.21" color="#9400D3" xlink:href="#gpDot"/><use x="213.43" y="322.11" color="#9400D3" xlink:href="#gpDot"/><use x="217.43" y="313.42" color="#9400D3" xlink:href="#gpDot"/><use x="221.44" y="312.39" color="#9400D3" xlink:href="#gpDot"/><use x="225.44" y="309.32" color="#9400D3" xlink:href="#gpDot"/><use x="229.45" y="307.28" color="#9400D3" xlink:href="#gpDot"/><use x="233.45" y="304.72" color="#9400D3" xlink:href="#gpDot"/><use x="237.45" y="300.62" color="#9400D3" xlink:href="#gpDot"/><use x="241.46" y="299.09" color="#9400D3" xlink:href="#gpDot"/><use x="245.46" y="294.48" color="#9400D3" xlink:href="#gpDot"/><use x="249.47" y="293.46" color="#9400D3" xlink:href="#gpDot"/><use x="253.47" y="289.89" color="#9400D3" xlink:href="#gpDot"/><use x="257.47" y="287.32" color="#9400D3" xlink:href="#gpDot"/><use x="261.48" y="282.2" color="#9400D3" xlink:href="#gpDot"/><use x="265.48" y="280.67" color="#9400D3" xlink:href="#gpDot"/><use x="269.49" y="278.11" color="#9400D3" xlink:href="#gpDot"/><use x="273.49" y="274.53" color="#9400D3" xlink:href="#gpDot"/><use x="277.49" y="272.48" color="#9400D3" xlink:href="#gpDot"/><use x="281.5" y="268.9" color="#9400D3" xlink:href="#gpDot"/><use x="285.5" y="264.82" color="#9400D3" xlink:href="#gpDot"/><use x="289.51" y="260.71" color="#9400D3" xlink:href="#gpDot"/><use x="293.51" y="259.69" color="#9400D3" xlink:href="#gpDot"/><use x="297.51" y="257.14" color="#9400D3" xlink:href="#gpDot"/><use x="301.52" y="253.55" color="#9400D3" xlink:href="#gpDot"/><use x="305.52" y="249.47" color="#9400D3" xlink:href="#gpDot"/><use x="309.52" y="246.4" color="#9400D3" xlink:href="#gpDot"/><use x="313.53" y="244.34" color="#9400D3" xlink:href="#gpDot"/><use x="317.53" y="241.79" color="#9400D3" xlink:href="#gpDot"/><use x="321.54" y="238.2" color="#9400D3" xlink:href="#gpDot"/><use x="325.54" y="234.1" color="#9400D3" xlink:href="#gpDot"/><use x="329.54" y="232.07" color="#9400D3" xlink:href="#gpDot"/><use x="333.55" y="227.98" color="#9400D3" xlink:href="#gpDot"/><use x="337.55" y="224.91" color="#9400D3" xlink:href="#gpDot"/><use x="341.56" y="222.86" color="#9400D3" xlink:href="#gpDot"/><use x="345.56" y="215.18" color="#9400D3" xlink:href="#gpDot"/><use x="349.56" y="211.09" color="#9400D3" xlink:href="#gpDot"/><use x="353.57" y="210.06" color="#9400D3" xlink:href="#gpDot"/><use x="357.57" y="207.51" color="#9400D3" xlink:href="#gpDot"/><use x="361.58" y="202.39" color="#9400D3" xlink:href="#gpDot"/><use x="365.58" y="202.4" color="#9400D3" xlink:href="#gpDot"/><use x="369.58" y="197.79" color="#9400D3" xlink:href="#gpDot"/><use x="373.59" y="195.73" color="#9400D3" xlink:href="#gpDot"/><use x="377.59" y="193.18" color="#9400D3" xlink:href="#gpDot"/><use x="381.59" y="190.11" color="#9400D3" xlink:href="#gpDot"/><use x="385.6" y="187.55" color="#9400D3" xlink:href="#gpDot"/><use x="389.6" y="185" color="#9400D3" xlink:href="#gpDot"/><use x="393.61" y="180.39" color="#9400D3" xlink:href="#gpDot"/><use x="397.61" y="178.34" color="#9400D3" xlink:href="#gpDot"/><use x="401.61" y="174.25" color="#9400D3" xlink:href="#gpDot"/><use x="405.62" y="172.72" color="#9400D3" xlink:href="#gpDot"/><use x="409.62" y="170.16" color="#9400D3" xlink:href="#gpDot"/><use x="413.63" y="164.53" color="#9400D3" xlink:href="#gpDot"/><use x="417.63" y="161.97" color="#9400D3" xlink:href="#gpDot"/><use x="421.63" y="137.92" color="#9400D3" xlink:href="#gpDot"/><use x="425.64" y="156.85" color="#9400D3" xlink:href="#gpDot"/><use x="429.64" y="152.25" color="#9400D3" xlink:href="#gpDot"/><use x="433.65" y="151.23" color="#9400D3" xlink:href="#gpDot"/><use x="437.65" y="145.09" color="#9400D3" xlink:href="#gpDot"/><use x="441.65" y="142.53" color="#9400D3" xlink:href="#gpDot"/><use x="445.66" y="141" color="#9400D3" xlink:href="#gpDot"/><use x="449.66" y="137.92" color="#9400D3" xlink:href="#gpDot"/><use x="453.66" y="135.36" color="#9400D3" xlink:href="#gpDot"/><use x="457.67" y="132.81" color="#9400D3" xlink:href="#gpDot"/><use x="461.67" y="129.22" color="#9400D3" xlink:href="#gpDot"/><use x="465.68" y="126.67" color="#9400D3" xlink:href="#gpDot"/><use x="469.68" y="122.05" color="#9400D3" xlink:href="#gpDot"/><use x="473.68" y="118.48" color="#9400D3" xlink:href="#gpDot"/><use x="477.69" y="116.43" color="#9400D3" xlink:href="#gpDot"/><use x="481.69" y="113.87" color="#9400D3" xlink:href="#gpDot"/><use x="485.7" y="109.78" color="#9400D3" xlink:href="#gpDot"/><use x="454.58" y="72.01" color="#9400D3" xlink:href="#gpDot"/></g></g><g id="gnuplot_plot_2"><title>base.log (CLVM cost)</title><g fill="none" stroke="currentColor" stroke-linecap="butt" stroke-linejoin="miter" stroke-width="1" color="#000"><g fill="#000" stroke="none" font-family="Arial" font-size="12" text-anchor="end"><text transform="translate(424.91,93.91)"><tspan font-family="Arial">base.log (CLVM cost)</tspan></text></g></g><g fill="none" stroke="currentColor" stroke-linecap="butt" stroke-linejoin="miter" stroke-width="1" color="#000"><use x="93.31" y="418.84" color="#009E73" xlink:href="#gpDot"/><use x="97.32" y="415.38" color="#009E73" xlink:href="#gpDot"/><use x="101.32" y="411.92" color="#009E73" xlink:href="#gpDot"/><use x="105.33" y="408.46" color="#009E73" xlink:href="#gpDot"/><use x="109.33" y="405.01" color="#009E73" xlink:href="#gpDot"/><use x="113.33" y="401.55" color="#009E73" xlink:href="#gpDot"/><use x="117.34" y="398.09" color="#009E73" xlink:href="#gpDot"/><use x="121.34" y="394.63" color="#009E73" xlink:href="#gpDot"/><use x="125.35" y="391.18" color="#009E73" xlink:href="#gpDot"/><use x="129.35" y="387.72" color="#009E73" xlink:href="#gpDot"/><use x="133.35" y="384.26" color="#009E73" xlink:href="#gpDot"/><use x="137.36" y="380.8" color="#009E73" xlink:href="#gpDot"/><use x="141.36" y="377.35" color="#009E73" xlink:href="#gpDot"/><use x="145.36" y="373.89" color="#009E73" xlink:href="#gpDot"/><use x="149.37" y="370.43" color="#009E73" xlink:href="#gpDot"/><use x="153.37" y="366.97" color="#009E73" xlink:href="#gpDot"/><use x="157.38" y="363.52" color="#009E73" xlink:href="#gpDot"/><use x="161.38" y="360.06" color="#009E73" xlink:href="#gpDot"/><use x="165.38" y="356.6" color="#009E73" xlink:href="#gpDot"/><use x="169.39" y="353.14" color="#009E73" xlink:href="#gpDot"/><use x="173.39" y="349.69" color="#009E73" xlink:href="#gpDot"/><use x="177.4" y="346.23" color="#009E73" xlink:href="#gpDot"/><use x="181.4" y="342.77" color="#009E73" xlink:href="#gpDot"/><use x="185.4" y="339.31" color="#009E73" xlink:href="#gpDot"/><use x="189.41" y="335.85" color="#009E73" xlink:href="#gpDot"/><use x="193.41" y="332.4" color="#009E73" xlink:href="#gpDot"/><use x="197.42" y="328.94" color="#009E73" xlink:href="#gpDot"/><use x="201.42" y="325.48" color="#009E73" xlink:href="#gpDot"/><use x="205.42" y="322.02" color="#009E73" xlink:href="#gpDot"/><use x="209.43" y="318.57" color="#009E73" xlink:href="#gpDot"/><use x="213.43" y="315.11" color="#009E73" xlink:href="#gpDot"/><use x="217.43" y="311.65" color="#009E73" xlink:href="#gpDot"/><use x="221.44" y="308.19" color="#009E73" xlink:href="#gpDot"/><use x="225.44" y="304.74" color="#009E73" xlink:href="#gpDot"/><use x="229.45" y="301.28" color="#009E73" xlink:href="#gpDot"/><use x="233.45" y="297.82" color="#009E73" xlink:href="#gpDot"/><use x="237.45" y="294.36" color="#009E73" xlink:href="#gpDot"/><use x="241.46" y="290.91" color="#009E73" xlink:href="#gpDot"/><use x="245.46" y="287.45" color="#009E73" xlink:href="#gpDot"/><use x="249.47" y="283.99" color="#009E73" xlink:href="#gpDot"/><use x="253.47" y="280.53" color="#009E73" xlink:href="#gpDot"/><use x="257.47" y="277.08" color="#009E73" xlink:href="#gpDot"/><use x="261.48" y="273.62" color="#009E73" xlink:href="#gpDot"/><use x="265.48" y="270.16" color="#009E73" xlink:href="#gpDot"/><use x="269.49" y="266.7" color="#009E73" xlink:href="#gpDot"/><use x="273.49" y="263.24" color="#009E73" xlink:href="#gpDot"/><use x="277.49" y="259.79" color="#009E73" xlink:href="#gpDot"/><use x="281.5" y="256.33" color="#009E73" xlink:href="#gpDot"/><use x="285.5" y="252.87" color="#009E73" xlink:href="#gpDot"/><use x="289.51" y="249.41" color="#009E73" xlink:href="#gpDot"/><use x="293.51" y="245.96" color="#009E73" xlink:href="#gpDot"/><use x="297.51" y="242.5" color="#009E73" xlink:href="#gpDot"/><use x="301.52" y="239.04" color="#009E73" xlink:href="#gpDot"/><use x="305.52" y="235.58" color="#009E73" xlink:href="#gpDot"/><use x="309.52" y="232.13" color="#009E73" xlink:href="#gpDot"/><use x="313.53" y="228.67" color="#009E73" xlink:href="#gpDot"/><use x="317.53" y="225.21" color="#009E73" xlink:href="#gpDot"/><use x="321.54" y="221.75" color="#009E73" xlink:href="#gpDot"/><use x="325.54" y="218.3" color="#009E73" xlink:href="#gpDot"/><use x="329.54" y="214.84" color="#009E73" xlink:href="#gpDot"/><use x="333.55" y="211.38" color="#009E73" xlink:href="#gpDot"/><use x="337.55" y="207.92" color="#009E73" xlink:href="#gpDot"/><use x="341.56" y="204.47" color="#009E73" xlink:href="#gpDot"/><use x="345.56" y="201.01" color="#009E73" xlink:href="#gpDot"/><use x="349.56" y="197.55" color="#009E73" xlink:href="#gpDot"/><use x="353.57" y="194.09" color="#009E73" xlink:href="#gpDot"/><use x="357.57" y="190.64" color="#009E73" xlink:href="#gpDot"/><use x="361.58" y="187.18" color="#009E73" xlink:href="#gpDot"/><use x="365.58" y="183.72" color="#009E73" xlink:href="#gpDot"/><use x="369.58" y="180.26" color="#009E73" xlink:href="#gpDot"/><use x="373.59" y="176.8" color="#009E73" xlink:href="#gpDot"/><use x="377.59" y="173.35" color="#009E73" xlink:href="#gpDot"/><use x="381.59" y="169.89" color="#009E73" xlink:href="#gpDot"/><use x="385.6" y="166.43" color="#009E73" xlink:href="#gpDot"/><use x="389.6" y="162.97" color="#009E73" xlink:href="#gpDot"/><use x="393.61" y="159.52" color="#009E73" xlink:href="#gpDot"/><use x="397.61" y="156.06" color="#009E73" xlink:href="#gpDot"/><use x="401.61" y="152.6" color="#009E73" xlink:href="#gpDot"/><use x="405.62" y="149.14" color="#009E73" xlink:href="#gpDot"/><use x="409.62" y="145.69" color="#009E73" xlink:href="#gpDot"/><use x="413.63" y="142.23" color="#009E73" xlink:href="#gpDot"/><use x="417.63" y="138.77" color="#009E73" xlink:href="#gpDot"/><use x="421.63" y="135.31" color="#009E73" xlink:href="#gpDot"/><use x="425.64" y="131.86" color="#009E73" xlink:href="#gpDot"/><use x="429.64" y="128.4" color="#009E73" xlink:href="#gpDot"/><use x="433.65" y="124.94" color="#009E73" xlink:href="#gpDot"/><use x="437.65" y="121.48" color="#009E73" xlink:href="#gpDot"/><use x="441.65" y="118.03" color="#009E73" xlink:href="#gpDot"/><use x="445.66" y="114.57" color="#009E73" xlink:href="#gpDot"/><use x="449.66" y="111.11" color="#009E73" xlink:href="#gpDot"/><use x="453.66" y="107.65" color="#009E73" xlink:href="#gpDot"/><use x="457.67" y="104.2" color="#009E73" xlink:href="#gpDot"/><use x="461.67" y="100.74" color="#009E73" xlink:href="#gpDot"/><use x="465.68" y="97.28" color="#009E73" xlink:href="#gpDot"/><use x="469.68" y="93.82" color="#009E73" xlink:href="#gpDot"/><use x="473.68" y="90.36" color="#009E73" xlink:href="#gpDot"/><use x="477.69" y="86.91" color="#009E73" xlink:href="#gpDot"/><use x="481.69" y="83.45" color="#009E73" xlink:href="#gpDot"/><use x="485.7" y="79.99" color="#009E73" xlink:href="#gpDot"/><use x="454.58" y="90.01" color="#009E73" xlink:href="#gpDot"/></g></g><g id="gnuplot_plot_3"><title>base.log timing inferred by cost-factor</title><g fill="none" stroke="currentColor" stroke-linecap="butt" stroke-linejoin="miter" stroke-width="1" color="#000"><g fill="#000" stroke="none" font-family="Arial" font-size="12" text-anchor="end"><text transform="translate(424.91,111.91)"><tspan font-family="Arial">base.log timing inferred by cost-factor</tspan></text></g></g><g fill="none" stroke="currentColor" stroke-linecap="butt" stroke-linejoin="miter" stroke-width="1" color="#000"><use x="93.31" y="418.84" color="#56B4E9" xlink:href="#gpDot"/><use x="97.32" y="415.38" color="#56B4E9" xlink:href="#gpDot"/><use x="101.32" y="411.92" color="#56B4E9" xlink:href="#gpDot"/><use x="105.33" y="408.46" color="#56B4E9" xlink:href="#gpDot"/><use x="109.33" y="405.01" color="#56B4E9" xlink:href="#gpDot"/><use x="113.33" y="401.55" color="#56B4E9" xlink:href="#gpDot"/><use x="117.34" y="398.09" color="#56B4E9" xlink:href="#gpDot"/><use x="121.34" y="394.63" color="#56B4E9" xlink:href="#gpDot"/><use x="125.35" y="391.18" color="#56B4E9" xlink:href="#gpDot"/><use x="129.35" y="387.72" color="#56B4E9" xlink:href="#gpDot"/><use x="133.35" y="384.26" color="#56B4E9" xlink:href="#gpDot"/><use x="137.36" y="380.8" color="#56B4E9" xlink:href="#gpDot"/><use x="141.36" y="377.35" color="#56B4E9" xlink:href="#gpDot"/><use x="145.36" y="373.89" color="#56B4E9" xlink:href="#gpDot"/><use x="149.37" y="370.43" color="#56B4E9" xlink:href="#gpDot"/><use x="153.37" y="366.97" color="#56B4E9" xlink:href="#gpDot"/><use x="157.38" y="363.52" color="#56B4E9" xlink:href="#gpDot"/><use x="161.38" y="360.06" color="#56B4E9" xlink:href="#gpDot"/><use x="165.38" y="356.6" color="#56B4E9" xlink:href="#gpDot"/><use x="169.39" y="353.14" color="#56B4E9" xlink:href="#gpDot"/><use x="173.39" y="349.69" color="#56B4E9" xlink:href="#gpDot"/><use x="177.4" y="346.23" color="#56B4E9" xlink:href="#gpDot"/><use x="181.4" y="342.77" color="#56B4E9" xlink:href="#gpDot"/><use x="185.4" y="339.31" color="#56B4E9" xlink:href="#gpDot"/><use x="189.41" y="335.85" color="#56B4E9" xlink:href="#gpDot"/><use x="193.41" y="332.4" color="#56B4E9" xlink:href="#gpDot"/><use x="197.42" y="328.94" color="#56B4E9" xlink:href="#gpDot"/><use x="201.42" y="325.48" color="#56B4E9" xlink:href="#gpDot"/><use x="205.42" y="322.02" color="#56B4E9" xlink:href="#gpDot"/><use x="209.43" y="318.57" color="#56B4E9" xlink:href="#gpDot"/><use x="213.43" y="315.11" color="#56B4E9" xlink:href="#gpDot"/><use x="217.43" y="311.65" color="#56B4E9" xlink:href="#gpDot"/><use x="221.44" y="308.19" color="#56B4E9" xlink:href="#gpDot"/><use x="225.44" y="304.74" color="#56B4E9" xlink:href="#gpDot"/><use x="229.45" y="301.28" color="#56B4E9" xlink:href="#gpDot"/><use x="233.45" y="297.82" color="#56B4E9" xlink:href="#gpDot"/><use x="237.45" y="294.36" color="#56B4E9" xlink:href="#gpDot"/><use x="241.46" y="290.91" color="#56B4E9" xlink:href="#gpDot"/><use x="245.46" y="287.45" color="#56B4E9" xlink:href="#gpDot"/><use x="249.47" y="283.99" color="#56B4E9" xlink:href="#gpDot"/><use x="253.47" y="280.53" color="#56B4E9" xlink:href="#gpDot"/><use x="257.47" y="277.08" color="#56B4E9" xlink:href="#gpDot"/><use x="261.48" y="273.62" color="#56B4E9" xlink:href="#gpDot"/><use x="265.48" y="270.16" color="#56B4E9" xlink:href="#gpDot"/><use x="269.49" y="266.7" color="#56B4E9" xlink:href="#gpDot"/><use x="273.49" y="263.24" color="#56B4E9" xlink:href="#gpDot"/><use x="277.49" y="259.79" color="#56B4E9" xlink:href="#gpDot"/><use x="281.5" y="256.33" color="#56B4E9" xlink:href="#gpDot"/><use x="285.5" y="252.87" color="#56B4E9" xlink:href="#gpDot"/><use x="289.51" y="249.41" color="#56B4E9" xlink:href="#gpDot"/><use x="293.51" y="245.96" color="#56B4E9" xlink:href="#gpDot"/><use x="297.51" y="242.5" color="#56B4E9" xlink:href="#gpDot"/><use x="301.52" y="239.04" color="#56B4E9" xlink:href="#gpDot"/><use x="305.52" y="235.58" color="#56B4E9" xlink:href="#gpDot"/><use x="309.52" y="232.13" color="#56B4E9" xlink:href="#gpDot"/><use x="313.53" y="228.67" color="#56B4E9" xlink:href="#gpDot"/><use x="317.53" y="225.21" color="#56B4E9" xlink:href="#gpDot"/><use x="321.54" y="221.75" color="#56B4E9" xlink:href="#gpDot"/><use x="325.54" y="218.3" color="#56B4E9" xlink:href="#gpDot"/><use x="329.54" y="214.84" color="#56B4E9" xlink:href="#gpDot"/><use x="333.55" y="211.38" color="#56B4E9" xlink:href="#gpDot"/><use x="337.55" y="207.92" color="#56B4E9" xlink:href="#gpDot"/><use x="341.56" y="204.47" color="#56B4E9" xlink:href="#gpDot"/><use x="345.56" y="201.01" color="#56B4E9" xlink:href="#gpDot"/><use x="349.56" y="197.55" color="#56B4E9" xlink:href="#gpDot"/><use x="353.57" y="194.09" color="#56B4E9" xlink:href="#gpDot"/><use x="357.57" y="190.64" color="#56B4E9" xlink:href="#gpDot"/><use x="361.58" y="187.18" color="#56B4E9" xlink:href="#gpDot"/><use x="365.58" y="183.72" color="#56B4E9" xlink:href="#gpDot"/><use x="369.58" y="180.26" color="#56B4E9" xlink:href="#gpDot"/><use x="373.59" y="176.8" color="#56B4E9" xlink:href="#gpDot"/><use x="377.59" y="173.35" color="#56B4E9" xlink:href="#gpDot"/><use x="381.59" y="169.89" color="#56B4E9" xlink:href="#gpDot"/><use x="385.6" y="166.43" color="#56B4E9" xlink:href="#gpDot"/><use x="389.6" y="162.97" color="#56B4E9" xlink:href="#gpDot"/><use x="393.61" y="159.52" color="#56B4E9" xlink:href="#gpDot"/><use x="397.61" y="156.06" color="#56B4E9" xlink:href="#gpDot"/><use x="401.61" y="152.6" color="#56B4E9" xlink:href="#gpDot"/><use x="405.62" y="149.14" color="#56B4E9" xlink:href="#gpDot"/><use x="409.62" y="145.69" color="#56B4E9" xlink:href="#gpDot"/><use x="413.63" y="142.23" color="#56B4E9" xlink:href="#gpDot"/><use x="417.63" y="138.77" color="#56B4E9" xlink:href="#gpDot"/><use x="421.63" y="135.31" color="#56B4E9" xlink:href="#gpDot"/><use x="425.64" y="131.86" color="#56B4E9" xlink:href="#gpDot"/><use x="429.64" y="128.4" color="#56B4E9" xlink:href="#gpDot"/><use x="433.65" y="124.94" color="#56B4E9" xlink:href="#gpDot"/><use x="437.65" y="121.48" color="#56B4E9" xlink:href="#gpDot"/><use x="441.65" y="118.03" color="#56B4E9" xlink:href="#gpDot"/><use x="445.66" y="114.57" color="#56B4E9" xlink:href="#gpDot"/><use x="449.66" y="111.11" color="#56B4E9" xlink:href="#gpDot"/><use x="453.66" y="107.65" color="#56B4E9" xlink:href="#gpDot"/><use x="457.67" y="104.2" color="#56B4E9" xlink:href="#gpDot"/><use x="461.67" y="100.74" color="#56B4E9" xlink:href="#gpDot"/><use x="465.68" y="97.28" color="#56B4E9" xlink:href="#gpDot"/><use x="469.68" y="93.82" color="#56B4E9" xlink:href="#gpDot"/><use x="473.68" y="90.36" color="#56B4E9" xlink:href="#gpDot"/><use x="477.69" y="86.91" color="#56B4E9" xlink:href="#gpDot"/><use x="481.69" y="83.45" color="#56B4E9" xlink:href="#gpDot"/><use x="485.7" y="79.99" color="#56B4E9" xlink:href="#gpDot"/><use x="454.58" y="108.01" color="#56B4E9" xlink:href="#gpDot"/></g></g><g fill="none" stroke="currentColor" stroke-linecap="butt" stroke-linejoin="miter" stroke-width="1" color="#000"><path stroke="#000" d="M89.31,54.01 L89.31,422.40 L489.70,422.40 L489.70,54.01 L89.31,54.01 Z"/><g fill="#000" stroke="none" font-family="Arial" font-size="12" text-anchor="middle"><text transform="translate(19.18,238.21) rotate(270.00)"><tspan font-family="Arial">nanoseconds</tspan></text></g></g><g fill="none" stroke="currentColor" stroke-linecap="butt" stroke-linejoin="miter" stroke-width="1" color="#000"><g fill="#000" stroke="none" font-family="Arial" font-size="12" text-anchor="middle"><text transform="translate(569.72,238.21) rotate(270.00)"><tspan font-family="Arial">cost</tspan></text></g></g><g fill="none" stroke="currentColor" stroke-linecap="butt" stroke-linejoin="miter" stroke-width="1" color="#000"><g fill="#000" stroke="none" font-family="Arial" font-size="12" text-anchor="middle"><text transform="translate(289.50,471.30)"><tspan font-family="Arial">num nested calls</tspan></text></g></g><g fill="none" stroke="currentColor" stroke-linecap="butt" stroke-linejoin="miter" stroke-width="1" color="#000"><g fill="#000" stroke="none" font-family="Arial" font-size="12" text-anchor="middle"><text transform="translate(289.50,30.91)"><tspan font-family="Arial">sha256tree base cost, nested calls</tspan></text></g></g></g></svg>